# xmcd
#
# Track frame offsets:
#	150
#	13874
#	32039
#	54184
#	74926
#	88936
#	108764
#	126605
#	143183
#	162590
#	185504
#	199194
#
# Disc length: 2928 seconds
#
# Revision: 0
# Processed by: cddbd v1.5.1PL2 Copyright (c) Steve Scherf et al.
# Submitted via: dBpowerAMP V4.0
#
DISCID=b70b6e0c
DTITLE=Jimmy James Gang - Welcome To The Real World
DYEAR=2006
DGENRE=Blues
TTITLE0=This Must Be Love
TTITLE1=Strange River
TTITLE2=Welcome To The Real World
TTITLE3=Drove Me Wild
TTITLE4=Evening Time
TTITLE5=Romeo
TTITLE6=The Apology
TTITLE7=Jimmy's Going Down
TTITLE8=Nobody Knows
TTITLE9=Little White Lies
TTITLE10=Simple
TTITLE11=You're Losing Her
EXTD=
EXTT0=
EXTT1=
EXTT2=
EXTT3=
EXTT4=
EXTT5=
EXTT6=
EXTT7=
EXTT8=
EXTT9=
EXTT10=
EXTT11=
PLAYORDER=
